<svg xmlns="http://www.w3.org/2000/svg" width="24" height="24" viewBox="0 0 24 24" fill="none" stroke="currentColor" stroke-width="2" stroke-linecap="round" stroke-linejoin="round" class="feather feather-headphones">
  <!-- 헤드밴드 -->
  <path d="M2 18v-6a10 10 0 0 1 20 0v6"/>
  <!-- 왼쪽 이어컵 -->
  <path d="M2 19a2 2 0 0 0 2 2h1a2 2 0 0 0 2-2v-3a2 2 0 0 0-2-2H2z"/>
  <!-- 오른쪽 이어컵 -->
  <path d="M22 19a2 2 0 0 1-2 2h-1a2 2 0 0 1-2-2v-3a2 2 0 0 1 2-2h3z"/>
  <!-- 헤드밴드 디테일 -->
  <path d="M8 12h8" stroke-width="1.5"/>
  <!-- 왼쪽 음향 파형 -->
  <path d="M6 8c1 0 2 1 2 2s-1 2-2 2" stroke-width="1.5"/>
  <!-- 오른쪽 음향 파형 -->
  <path d="M18 8c-1 0-2 1-2 2s1 2 2 2" stroke-width="1.5"/>
</svg>